<?xml version="1.0" encoding="utf-8"?>
<!-- Generator: Adobe Illustrator 19.2.0, SVG Export Plug-In . SVG Version: 6.00 Build 0)  -->
<svg version="1.1" id="圖層_1" xmlns="http://www.w3.org/2000/svg" xmlns:xlink="http://www.w3.org/1999/xlink" x="0px" y="0px"
	 viewBox="0 0 224 128" style="enable-background:new 0 0 224 128;" xml:space="preserve">
<style type="text/css">
	.st0{fill:#FFFFFF;}
</style>
<g>
	<g>
		<path class="st0" d="M188.8,58.3c2.6,0.8-5.3-1-12.8,4.7c-6.6,5-15.5,1.2-14.2,1.4C171,65.6,171.7,53.3,188.8,58.3z"/>
		<path class="st0" d="M147.2,67.6c11.5,3.6,19.6,6.8,24.9,5.6c0.3-0.1-1.5,2.3-5.3,3.1c-12.6,2.5-20.4-7.4-44.7-10.5
			c-2.8-0.4-6.9-0.4-1.2-0.8C128.5,64.4,138.9,65.1,147.2,67.6z"/>
	</g>
	<g>
		<path class="st0" d="M39.6,53.6c-4.3,6.8-8,7.3-9.7,6.9c-3.2-0.8-3.1-6.2,3.4-10.4c7.1-4.6,20.7-10,24.9-23.5
			c3.8-12.3-0.4-1.7-4.6,2.4c-4.7,4.5-13,8.4-20.9,11.1c-7.9,2.6-22.6,8.5-21.4,21.5c1,10.6,14.4,19.1,25.6,11.1
			c8.5-6.1,7-22.6,15-29.8c4.1-3.7-0.4-1.3-4.2,1.7C45.5,46.2,42.1,49.7,39.6,53.6z"/>
		<path class="st0" d="M57.3,86.8c0,0,8.5,1.8,17.2-8.5c10-11.9,21.2-22.3,44.9-23c18.9-0.6,38.6,8.4,31.4,6.9
			c-15.9-3.2-43.9-8.6-59.9,14.8c-16.3,24-35,12.2-37.4,10.7C50.9,86.1,51.4,85.8,57.3,86.8z"/>
		<path class="st0" d="M38.4,72.5c11.2,0.1,14.7-6.4,23.8-29.8c12.1-31.2,41-31.9,69.1-31.3c5.7,0.1,18.3,1.1,26.9-4.4
			c4.2-2.7,4.2-2.5,1.7,0.9c-4.9,6.6-21,13.6-38.3,13c-7.1-0.2-7.5,5.5-0.9,6.9c29.3,6.4,59.9-29.7,90.8-13.4
			c11,5.8,2.9,2.2-3.7,0.7c-31.2-6.8-48.4,27.8-93,25.1c-29-1.7-36.4,6.1-37.1,8.4c-1.5,4.3,3.6,4.8,6.9,2.2
			c6.3-5,13.1-8.2,24.8-3.7c4.4,1.7-3.4,0-10.1,2.5c-13,4.7-30.1,32.1-57.7,24.9C32.8,72.2,36.5,72.5,38.4,72.5z"/>
	</g>
	<polygon class="st0" points="7.2,81.2 41.4,81.2 41.4,86.4 27.2,86.4 27.2,122.2 21.3,122.2 21.3,86.4 7.2,86.4 	"/>
	<path class="st0" d="M159.4,112.7v6.4c-4.3,2.3-9.3,3.5-14.9,3.5c-4.6,0-8.4-0.9-11.6-2.8c-3.2-1.8-5.7-4.4-7.6-7.6
		c-1.9-3.2-2.8-6.7-2.8-10.5c0-6,2.1-11,6.4-15c4.2-4.1,9.5-6.1,15.7-6.1c4.3,0,9.1,1.1,14.3,3.4v6.3c-4.8-2.7-9.5-4.1-14-4.1
		c-4.7,0-8.6,1.5-11.7,4.4c-3.1,3-4.6,6.7-4.6,11.1c0,4.5,1.5,8.2,4.6,11.1c3,2.9,6.9,4.3,11.7,4.3
		C149.9,117.2,154.7,115.7,159.4,112.7"/>
	<polygon class="st0" points="193.5,81.2 199.3,81.2 199.3,122.2 193.5,122.2 193.5,104.3 170.5,104.3 170.5,122.2 164.6,122.2 
		164.6,81.2 170.5,81.2 170.5,98.9 193.5,98.9 	"/>
	<path class="st0" d="M62.6,80.6c1.9,0,3.9,0.4,5.6,0.7c0,0-2.6,2.1-4.9,3.4c-2,1.1-3.6,1.4-3.6,1.4c-3.4,0.7-6,2.1-8.4,4.5
		c-3,2.9-4.5,6.7-4.5,11.2c0,4.4,1.5,8.1,4.5,11c3,2.9,6.8,4.4,11.4,4.4c4.6,0,8.4-1.5,11.4-4.5c3.1-3,4.6-6.7,4.6-11.2
		c0-3.8-1-6.7-3.4-9.5c0,0,0.6-0.1,2.3-0.8c2-0.9,3.2-1.8,3.2-1.8c2.7,3.5,3.9,7.4,3.9,12.2c0,6-2.1,11-6.4,15
		c-4.2,4-9.6,5.9-16.1,5.9c-6.2,0-11.3-2-15.4-5.9c-4.1-4-6.2-8.9-6.2-14.9c0-6.1,2.1-11.2,6.2-15.2C51.1,82.6,56.3,80.6,62.6,80.6"
		/>
	<path class="st0" d="M121.9,117c-0.5-0.7-6-9.2-7.5-11.2c-0.6-0.8-1.6-1.8-2.7-2.8c2.3-0.9,4.5-2.5,5.8-5
		c3.9-7.5-0.8-16.7-11.4-16.7c-10.6,0-15.6,0-15.6,0v0h0v17.9v5.2v17.8h5.8v-17.8h5.7c0.3,0,2.9,0.1,4.4,1.1
		c2.2,1.5,5.1,5.4,5.8,6.5c0.7,1.1,3.8,6,4.3,6.8c0.6,0.9,2.2,3.4,2.2,3.4h7C125.6,122.2,122.4,117.7,121.9,117z M96.2,86.2h2
		c0,0,8-0.1,10.1,0.3c0.3,0.1,0.7,0.2,1,0.3c2.3,0.8,4,3,4,5.6c0,2.6-1.6,4.7-3.9,5.6c-1.8,0.6-3.2,1.1-5.6,1.1c-3,0-5.6,0-7.6,0
		V86.2z"/>
</g>
</svg>
